<svg viewBox="0 0 32 32" xmlns="http://www.w3.org/2000/svg" height="32" width="32" xmlns:v="https://vecta.io/nano"><path d="M7.617 12.853c-.029-.433-.016-.897.011-1.235l2-.098-.018 1.163c.125.572.264.834.473 1.135.143.207.605.545.924.688h4.54v-.998h1.984v.998h3.577c.319-.143.781-.482.926-.693.196-.282.337-.527.412-.745.112-.926.044-.861.061-1.389l1.977-.241.012 1.416c-.021.312-.064.573-.129.774-.13.417-.36.853-.688 1.323-.116.169-.291.357-.498.543.202.17.373.34.486.484a4.31 4.31 0 0 1 .699 1.36c.068.212.111.472.132.784a8.81 8.81 0 0 1-.011 1.238l-2 .097.018-1.161c-.139-.619-.252-.877-.415-1.087-.154-.197-.68-.585-.984-.702l-3.574-.012v1h-1.984v-1.002h-4.533c-.307.132-.834.517-.986.711-.156.201-.274.439-.361.702-.111.928-.044.863-.06 1.391l-1.977.243-.012-1.417c.021-.311.063-.571.13-.78.158-.5.388-.96.702-1.366a3.49 3.49 0 0 1 .485-.483c-.207-.185-.38-.371-.495-.538-.33-.475-.56-.908-.69-1.319-.068-.211-.11-.472-.131-.783z" fill-rule="evenodd" stroke="#fff" stroke-linejoin="round"/></svg>